<svg width="298" height="58" viewBox="0 0 298 58" fill="none" xmlns="http://www.w3.org/2000/svg">
<g filter="url(#filter0_ii_14_360)">
<path d="M44 40C44 45.5228 39.5228 50 34 50H7C5.34315 50 4 48.6569 4 47V11C4 9.34315 5.34315 8 7 8H41C42.6569 8 44 9.34315 44 11V40Z" fill="#2A2A28"/>
</g>
<path d="M34 49.5H7C5.61929 49.5 4.5 48.3807 4.5 47V11C4.5 9.61929 5.61929 8.5 7 8.5H41C42.3807 8.5 43.5 9.61929 43.5 11V40L43.4873 40.4893C43.2327 45.5086 39.0826 49.5 34 49.5Z" stroke="white" stroke-opacity="0.05"/>
<g filter="url(#filter1_ddii_14_360)">
<path d="M8 14C8 8.47715 12.4772 4 18 4H47C48.6569 4 50 5.34315 50 7V43C50 44.6569 48.6569 46 47 46H11C9.34315 46 8 44.6569 8 43V14Z" fill="#2A2A28"/>
<path d="M18 4.5H47C48.3807 4.5 49.5 5.61929 49.5 7V43C49.5 44.3807 48.3807 45.5 47 45.5H11C9.61929 45.5 8.5 44.3807 8.5 43V14L8.5127 13.5107C8.75912 8.65347 12.6535 4.75912 17.5107 4.5127L18 4.5Z" stroke="white" stroke-opacity="0.05"/>
</g>
<path d="M35.6208 29.2015C29.9067 30.6103 24.5238 29.7062 21.127 28.6853C20.1636 28.3958 19.0461 28.7954 18.9473 29.7965C18.2734 36.6232 33.9321 43.658 38.1367 31.5174C38.6417 30.0595 37.1188 28.8321 35.6208 29.2015Z" fill="#91918C"/>
<path d="M26.9261 20.7547C26.9261 23.3126 26.0307 24.1231 24.9261 24.1231C23.8216 24.1231 22.9261 23.3126 22.9261 20.7547C22.9261 18.1967 24.2216 16.1231 25.3261 16.1231C26.4307 16.1231 26.9261 18.1967 26.9261 20.7547Z" fill="white"/>
<path d="M33 20.4C33 22.8301 33.8954 24 35 24C36.1046 24 37 22.8301 37 20.4C37 17.9699 36.5046 16 35.4 16C34.2954 16 33 17.9699 33 20.4Z" fill="white"/>
<path d="M37.9261 30.2027C37.9261 29.4763 37.1713 28.984 36.4795 29.206C31.8759 30.683 25.3695 30.3834 20.5451 28.6854C19.9044 28.4598 19.0669 28.6781 18.963 29.3494C18.8655 29.9795 18.9286 30.7415 19.5566 31.3542C19.6352 31.4309 19.7326 31.4872 19.8351 31.5266C26.9292 34.2565 34.0663 32.9112 37.3152 31.7095C37.6897 31.571 37.9261 31.2075 37.9261 30.8081L37.9261 30.2027Z" fill="white"/>
<path d="M74.606 18.714C76.874 21.024 77.252 22.872 77.252 26.148V38.664C77.252 38.874 77.084 39 76.916 39H70.28C70.07 39 69.902 38.874 69.902 38.664V26.484C69.902 25.644 69.86 24.72 69.524 23.964C69.356 23.628 69.146 23.376 68.894 23.166C68.474 22.83 67.928 22.662 67.256 22.662C65.954 22.662 64.988 23.124 64.652 23.838C64.316 24.594 64.316 25.644 64.316 26.484V38.664C64.316 38.874 64.148 39 63.938 39H57.302C57.092 39 56.966 38.874 56.966 38.664V10.104C56.966 9.894 57.092 9.726 57.302 9.726H63.518C63.728 9.726 63.896 9.894 63.896 10.104V17.706C63.896 17.874 64.022 17.958 64.148 17.874C69.188 14.388 74.06 18.252 74.102 18.294C74.27 18.42 74.438 18.588 74.606 18.714ZM102.721 16.74C102.889 16.74 103.057 16.908 103.057 17.118V38.664C103.057 38.832 102.889 39 102.721 39H96.4634C96.2954 39 96.1274 38.832 96.1274 38.664V38.328C96.1274 38.202 95.9594 38.118 95.8754 38.16C94.0694 39.168 92.0534 39.714 89.9954 39.714C83.4854 39.714 78.1934 34.464 78.1934 28.038C78.1934 21.612 83.4854 16.404 89.9954 16.404C92.0534 16.404 94.0694 16.908 95.8754 17.916C95.9594 18 96.1274 17.916 96.1274 17.79V17.118C96.1274 16.908 96.2954 16.74 96.4634 16.74H102.721ZM91.0454 33.414C94.0694 33.414 96.1274 31.02 96.1274 28.038C96.1274 25.098 94.0694 22.704 91.0454 22.704C88.0634 22.704 85.6274 25.098 85.6274 28.038C85.6274 31.02 88.0634 33.414 91.0454 33.414ZM118.098 16.404C124.608 16.404 129.9 21.654 129.9 28.08C129.9 34.506 124.608 39.714 118.098 39.714C115.998 39.714 113.982 39.21 112.218 38.16C112.092 38.118 111.966 38.202 111.966 38.328V46.014C111.966 46.224 111.798 46.392 111.588 46.392H105.372C105.162 46.392 105.036 46.224 105.036 46.014V17.118C105.036 16.908 105.162 16.74 105.372 16.74H111.588C111.798 16.74 111.966 16.908 111.966 17.118V17.79C111.966 17.916 112.092 18 112.218 17.958C113.982 16.95 115.998 16.404 118.098 16.404ZM117.006 33.414C119.988 33.414 122.424 31.02 122.424 28.08C122.424 25.098 119.988 22.704 117.006 22.704C114.024 22.704 111.966 25.098 111.966 28.08C111.966 31.02 114.024 33.414 117.006 33.414ZM144.143 16.404C150.653 16.404 155.945 21.654 155.945 28.08C155.945 34.506 150.653 39.714 144.143 39.714C142.043 39.714 140.027 39.21 138.263 38.16C138.137 38.118 138.011 38.202 138.011 38.328V46.014C138.011 46.224 137.843 46.392 137.633 46.392H131.417C131.207 46.392 131.081 46.224 131.081 46.014V17.118C131.081 16.908 131.207 16.74 131.417 16.74H137.633C137.843 16.74 138.011 16.908 138.011 17.118V17.79C138.011 17.916 138.137 18 138.263 17.958C140.027 16.95 142.043 16.404 144.143 16.404ZM143.051 33.414C146.033 33.414 148.469 31.02 148.469 28.08C148.469 25.098 146.033 22.704 143.051 22.704C140.069 22.704 138.011 25.098 138.011 28.08C138.011 31.02 140.069 33.414 143.051 33.414ZM176.689 16.74C176.941 16.74 177.109 16.992 177.025 17.244L170.011 36.69L166.777 45.972C166.693 46.098 166.567 46.224 166.441 46.224H159.511C159.259 46.224 159.091 45.972 159.175 45.72L161.863 37.698C161.905 37.656 161.905 37.572 161.863 37.488L154.471 17.244C154.387 16.992 154.555 16.74 154.807 16.74H161.023C161.149 16.74 161.275 16.866 161.317 16.992L165.391 27.954C165.517 28.29 165.937 28.248 166.063 27.954L169.801 16.992C169.843 16.866 169.969 16.74 170.137 16.74H176.689ZM190.819 16.404C197.329 16.404 202.621 21.654 202.621 28.08C202.621 34.506 197.329 39.714 190.819 39.714C188.719 39.714 186.703 39.21 184.939 38.16C184.813 38.118 184.687 38.202 184.687 38.328V46.014C184.687 46.224 184.519 46.392 184.309 46.392H178.093C177.883 46.392 177.757 46.224 177.757 46.014V17.118C177.757 16.908 177.883 16.74 178.093 16.74H184.309C184.519 16.74 184.687 16.908 184.687 17.118V17.79C184.687 17.916 184.813 18 184.939 17.958C186.703 16.95 188.719 16.404 190.819 16.404ZM189.727 33.414C192.709 33.414 195.145 31.02 195.145 28.08C195.145 25.098 192.709 22.704 189.727 22.704C186.745 22.704 184.687 25.098 184.687 28.08C184.687 31.02 186.745 33.414 189.727 33.414ZM227.532 16.74C227.7 16.74 227.868 16.908 227.868 17.118V38.664C227.868 38.832 227.7 39 227.532 39H221.274C221.106 39 220.938 38.832 220.938 38.664V38.328C220.938 38.202 220.77 38.118 220.686 38.16C218.88 39.168 216.864 39.714 214.806 39.714C208.296 39.714 203.004 34.464 203.004 28.038C203.004 21.612 208.296 16.404 214.806 16.404C216.864 16.404 218.88 16.908 220.686 17.916C220.77 18 220.938 17.916 220.938 17.79V17.118C220.938 16.908 221.106 16.74 221.274 16.74H227.532ZM215.856 33.414C218.88 33.414 220.938 31.02 220.938 28.038C220.938 25.098 218.88 22.704 215.856 22.704C212.874 22.704 210.438 25.098 210.438 28.038C210.438 31.02 212.874 33.414 215.856 33.414ZM253.451 16.824C253.661 16.824 253.829 16.992 253.829 17.16V34.674V36.9C253.829 44.544 249.713 48.786 242.195 48.786H242.027C241.943 48.786 241.859 48.786 241.733 48.786C240.053 48.786 235.895 48.576 231.107 44.208C230.939 44.082 230.981 43.83 231.149 43.662L235.727 40.134C235.853 40.05 236.063 40.05 236.189 40.176C237.155 41.184 239.381 43.032 242.237 42.864C244.085 42.738 245.597 42.024 246.395 40.932C246.899 40.176 247.067 39.294 246.899 38.286C246.857 38.16 246.731 38.118 246.647 38.16C244.841 39.168 242.867 39.714 240.809 39.714C234.299 39.714 229.049 34.464 229.049 28.08C229.049 21.696 234.299 16.446 240.809 16.446C242.867 16.446 244.883 16.992 246.647 18C246.773 18.084 246.899 18 246.899 17.832V17.16C246.899 16.992 247.067 16.824 247.277 16.824H253.451ZM241.859 33.414C244.841 33.414 246.899 31.02 246.899 28.08C246.899 27.45 246.815 26.82 246.563 26.232C245.807 24.132 244.127 22.746 241.859 22.746C238.877 22.746 236.483 25.14 236.483 28.08C236.483 30.978 238.751 33.33 241.691 33.414H241.733C241.775 33.414 241.817 33.414 241.859 33.414ZM278.154 24.762C278.49 25.854 278.616 26.946 278.616 28.08C278.616 28.71 278.574 29.466 278.448 30.138C278.406 30.306 278.28 30.432 278.07 30.432H262.488C262.236 30.432 262.068 30.726 262.194 30.978C263.16 32.574 264.882 33.624 266.772 33.624C268.368 33.624 269.88 32.91 270.93 31.524C271.014 31.44 271.14 31.356 271.308 31.398L277.272 32.448C277.482 32.49 277.608 32.742 277.524 32.952C277.398 33.246 277.23 33.582 277.104 33.75L277.02 33.918C276.936 34.086 276.852 34.254 276.726 34.422C276.6 34.632 276.474 34.8 276.348 34.968L276.264 35.094C276.222 35.136 276.18 35.178 276.138 35.22L276.054 35.304C275.97 35.43 275.886 35.514 275.802 35.598L275.76 35.682C275.592 35.85 275.466 35.976 275.34 36.144L275.256 36.228C275.172 36.312 275.088 36.396 274.962 36.48V36.522C274.836 36.606 274.752 36.732 274.626 36.816L274.5 36.9L274.374 36.774L274.5 36.942C274.332 37.068 274.164 37.194 273.996 37.32L273.87 37.404C273.702 37.53 273.492 37.656 273.324 37.782L273.24 37.824C273.03 37.992 272.82 38.118 272.568 38.244L272.526 38.286C272.484 38.286 272.4 38.328 272.358 38.37H272.316C272.232 38.412 272.148 38.454 272.022 38.538H271.98C271.77 38.664 271.56 38.748 271.392 38.832H271.35C271.182 38.874 271.098 38.916 270.972 38.958L270.804 39.042C270.678 39.084 270.51 39.126 270.384 39.168H270.342C270.174 39.252 270.006 39.294 269.838 39.336L269.712 39.378C269.376 39.462 269.04 39.504 268.662 39.588H268.536C268.2 39.63 267.822 39.672 267.486 39.714H267.36C267.15 39.714 266.982 39.714 266.814 39.714C266.646 39.714 266.478 39.714 266.268 39.714C266.226 39.714 266.184 39.714 266.142 39.714H266.1C265.974 39.672 265.848 39.672 265.722 39.672H265.68C265.638 39.672 265.596 39.672 265.554 39.63C265.344 39.63 265.176 39.63 265.008 39.588H264.924C264.756 39.546 264.63 39.504 264.504 39.504L264.336 39.462C264.21 39.42 264.084 39.42 263.958 39.378H263.916C263.874 39.336 263.832 39.336 263.79 39.336C263.622 39.294 263.454 39.252 263.286 39.21C263.118 39.126 262.95 39.084 262.782 39.042C262.782 39 262.74 39 262.698 39L262.656 38.958C262.53 38.916 262.404 38.874 262.32 38.832H262.278C262.236 38.79 262.194 38.79 262.152 38.79C261.984 38.706 261.858 38.622 261.69 38.58C261.522 38.496 261.396 38.412 261.228 38.328C261.186 38.328 261.144 38.286 261.102 38.286V38.244C260.976 38.202 260.892 38.16 260.766 38.076L260.64 37.992C260.472 37.908 260.346 37.824 260.22 37.74C258.792 36.774 257.574 35.556 256.692 34.086C256.608 34.002 256.566 33.876 256.482 33.75L256.44 33.666C256.398 33.582 256.314 33.456 256.272 33.33L256.23 33.246C256.23 33.204 256.188 33.204 256.188 33.162C255.936 32.7 255.768 32.196 255.6 31.692C255.474 31.44 255.432 31.188 255.348 30.978C255.306 30.81 255.264 30.6 255.222 30.39C255.096 29.844 255.054 29.256 255.012 28.668C255.012 28.458 255.012 28.248 255.012 28.08C255.012 27.87 255.012 27.66 255.012 27.45C255.054 26.442 255.264 25.392 255.6 24.426C255.684 24.09 255.81 23.796 255.936 23.544C255.978 23.376 256.062 23.208 256.146 23.04C256.146 23.04 256.188 22.998 256.188 22.956L256.23 22.872C256.23 22.83 256.272 22.788 256.272 22.746C256.314 22.704 256.314 22.662 256.356 22.662L256.44 22.452C256.524 22.326 256.608 22.158 256.692 22.032C257.574 20.604 258.792 19.344 260.22 18.378C260.346 18.294 260.472 18.21 260.64 18.126L260.766 18.042C260.892 18 260.976 17.916 261.102 17.874V17.832C261.144 17.832 261.186 17.79 261.228 17.79C261.396 17.706 261.522 17.622 261.69 17.538C261.858 17.496 261.984 17.412 262.152 17.328C262.194 17.328 262.236 17.328 262.278 17.286H262.32C262.404 17.244 262.53 17.202 262.656 17.16L262.698 17.118C262.74 17.118 262.782 17.118 262.782 17.076C262.95 17.034 263.118 16.992 263.286 16.908C263.454 16.866 263.622 16.824 263.79 16.782C263.832 16.782 263.874 16.782 263.916 16.74H263.958C264.084 16.698 264.21 16.698 264.336 16.656H264.42C264.588 16.614 264.84 16.572 264.966 16.53H265.008C265.176 16.53 265.344 16.488 265.554 16.488C265.596 16.488 265.638 16.446 265.68 16.446H265.722C265.848 16.446 265.974 16.446 266.1 16.446H266.142C266.184 16.404 266.226 16.404 266.268 16.404C266.478 16.404 266.646 16.404 266.814 16.404C266.982 16.404 267.15 16.404 267.36 16.404H267.486C267.822 16.446 268.2 16.488 268.536 16.53L268.704 16.572C269.04 16.614 269.376 16.656 269.712 16.74L269.838 16.782C270.006 16.824 270.174 16.908 270.342 16.95H270.384C270.51 16.992 270.678 17.034 270.804 17.076C270.846 17.118 270.888 17.118 270.93 17.16C271.098 17.202 271.182 17.244 271.308 17.286H271.392C271.56 17.37 271.77 17.496 271.98 17.58H272.022C272.148 17.664 272.232 17.706 272.316 17.748H272.358L272.274 17.916L272.358 17.748C272.4 17.79 272.484 17.832 272.526 17.874C272.736 17.958 273.03 18.168 273.24 18.294H273.282C273.492 18.42 273.66 18.546 273.87 18.714C273.912 18.756 273.954 18.798 273.996 18.798C274.164 18.924 274.332 19.05 274.5 19.218L274.584 19.26C274.71 19.386 274.836 19.512 274.962 19.596V19.638C275.088 19.722 275.172 19.806 275.256 19.89L275.34 19.974C275.466 20.142 275.592 20.268 275.718 20.436L275.634 20.562L275.76 20.436L275.802 20.52C275.886 20.604 275.97 20.688 276.054 20.814L276.138 20.898C276.222 20.982 276.306 21.108 276.39 21.234C276.474 21.36 276.558 21.444 276.6 21.528L276.726 21.738C276.768 21.822 276.852 21.906 276.894 21.99L277.104 22.368C277.566 23.124 277.902 23.922 278.154 24.762ZM271.308 25.518C271.518 25.518 271.686 25.308 271.686 25.098C271.392 23.46 269.502 22.2 267.066 22.2C264.882 22.2 262.782 23.46 262.488 25.098C262.446 25.308 262.614 25.518 262.824 25.518H271.308ZM292.362 26.274C293.79 26.946 297.066 28.878 296.856 32.364C296.814 33.162 296.604 34.002 296.268 34.842C294.924 37.698 291.858 39.378 288.036 39.378C287.49 39.378 286.944 39.336 286.398 39.294C284.676 39.084 283.206 38.622 281.946 37.908C280.644 37.026 279.678 35.808 279.006 34.296C278.922 34.086 279.048 33.834 279.258 33.792L285.348 32.49C285.516 32.448 285.642 32.532 285.726 32.658C286.146 33.288 286.902 33.582 287.28 33.624C288.204 33.75 288.708 33.498 288.96 33.288C289.17 33.036 289.296 32.7 289.254 32.364C289.17 31.608 288.708 31.23 286.356 30.138L286.314 30.096C285.852 29.886 285.264 29.592 284.592 29.298C284.13 29.088 283.71 28.878 283.29 28.668L283.248 28.626C283.206 28.584 283.164 28.584 283.08 28.542C280.98 27.324 279.72 25.854 279.426 24.132C278.964 21.696 280.518 19.638 280.854 19.26C281.316 18.714 281.862 18.252 282.492 17.874C284.34 16.698 286.734 16.194 289.212 16.488C290.682 16.656 292.026 17.076 293.202 17.664C293.79 17.958 294.294 18.336 294.756 18.714C295.092 19.008 296.058 19.974 296.394 21.486C296.436 21.696 296.31 21.864 296.1 21.906L290.094 23.124C289.926 23.166 289.758 23.04 289.716 22.914C289.548 22.494 289.17 22.074 288.372 21.948C287.826 21.906 287.364 22.074 287.07 22.41C286.818 22.662 286.734 22.956 286.818 23.208C286.944 23.628 287.322 24.258 289.59 25.182C290.01 25.35 290.43 25.518 290.85 25.686C291.354 25.854 291.858 26.064 292.362 26.274Z" fill="#2A2A28"/>
<defs>
<filter id="filter0_ii_14_360" x="4" y="8" width="40" height="42" filterUnits="userSpaceOnUse" color-interpolation-filters="sRGB">
<feFlood flood-opacity="0" result="BackgroundImageFix"/>
<feBlend mode="normal" in="SourceGraphic" in2="BackgroundImageFix" result="shape"/>
<feColorMatrix in="SourceAlpha" type="matrix" values="0 0 0 0 0 0 0 0 0 0 0 0 0 0 0 0 0 0 127 0" result="hardAlpha"/>
<feOffset dx="1" dy="1"/>
<feComposite in2="hardAlpha" operator="arithmetic" k2="-1" k3="1"/>
<feColorMatrix type="matrix" values="0 0 0 0 1 0 0 0 0 1 0 0 0 0 1 0 0 0 0.2 0"/>
<feBlend mode="normal" in2="shape" result="effect1_innerShadow_14_360"/>
<feColorMatrix in="SourceAlpha" type="matrix" values="0 0 0 0 0 0 0 0 0 0 0 0 0 0 0 0 0 0 127 0" result="hardAlpha"/>
<feOffset dx="-1" dy="-1"/>
<feComposite in2="hardAlpha" operator="arithmetic" k2="-1" k3="1"/>
<feColorMatrix type="matrix" values="0 0 0 0 0 0 0 0 0 0 0 0 0 0 0 0 0 0 0.2 0"/>
<feBlend mode="normal" in2="effect1_innerShadow_14_360" result="effect2_innerShadow_14_360"/>
</filter>
<filter id="filter1_ddii_14_360" x="0" y="0" width="58" height="58" filterUnits="userSpaceOnUse" color-interpolation-filters="sRGB">
<feFlood flood-opacity="0" result="BackgroundImageFix"/>
<feColorMatrix in="SourceAlpha" type="matrix" values="0 0 0 0 0 0 0 0 0 0 0 0 0 0 0 0 0 0 127 0" result="hardAlpha"/>
<feOffset dy="4"/>
<feGaussianBlur stdDeviation="4"/>
<feComposite in2="hardAlpha" operator="out"/>
<feColorMatrix type="matrix" values="0 0 0 0 0 0 0 0 0 0 0 0 0 0 0 0 0 0 0.3 0"/>
<feBlend mode="normal" in2="BackgroundImageFix" result="effect1_dropShadow_14_360"/>
<feColorMatrix in="SourceAlpha" type="matrix" values="0 0 0 0 0 0 0 0 0 0 0 0 0 0 0 0 0 0 127 0" result="hardAlpha"/>
<feOffset dy="4"/>
<feGaussianBlur stdDeviation="4"/>
<feComposite in2="hardAlpha" operator="out"/>
<feColorMatrix type="matrix" values="0 0 0 0 1 0 0 0 0 1 0 0 0 0 1 0 0 0 0.2 0"/>
<feBlend mode="normal" in2="effect1_dropShadow_14_360" result="effect2_dropShadow_14_360"/>
<feBlend mode="normal" in="SourceGraphic" in2="effect2_dropShadow_14_360" result="shape"/>
<feColorMatrix in="SourceAlpha" type="matrix" values="0 0 0 0 0 0 0 0 0 0 0 0 0 0 0 0 0 0 127 0" result="hardAlpha"/>
<feOffset dx="1" dy="1"/>
<feComposite in2="hardAlpha" operator="arithmetic" k2="-1" k3="1"/>
<feColorMatrix type="matrix" values="0 0 0 0 1 0 0 0 0 1 0 0 0 0 1 0 0 0 0.4 0"/>
<feBlend mode="normal" in2="shape" result="effect3_innerShadow_14_360"/>
<feColorMatrix in="SourceAlpha" type="matrix" values="0 0 0 0 0 0 0 0 0 0 0 0 0 0 0 0 0 0 127 0" result="hardAlpha"/>
<feOffset dx="-1" dy="-1"/>
<feComposite in2="hardAlpha" operator="arithmetic" k2="-1" k3="1"/>
<feColorMatrix type="matrix" values="0 0 0 0 0 0 0 0 0 0 0 0 0 0 0 0 0 0 0.2 0"/>
<feBlend mode="normal" in2="effect3_innerShadow_14_360" result="effect4_innerShadow_14_360"/>
</filter>
</defs>
</svg>
