<svg width="62" height="62" viewBox="0 0 62 62" fill="none" xmlns="http://www.w3.org/2000/svg">
<g filter="url(#filter0_dii_40_403)">
<path d="M48 40C48 45.5228 43.5228 50 38 50H11C9.34315 50 8 48.6569 8 47V11C8 9.34315 9.34315 8 11 8H45C46.6569 8 48 9.34315 48 11V40Z" fill="#F4F4F0"/>
<path d="M38 49.5H11C9.61929 49.5 8.5 48.3807 8.5 47V11C8.5 9.61929 9.61929 8.5 11 8.5H45C46.3807 8.5 47.5 9.61929 47.5 11V40L47.4873 40.4893C47.2327 45.5086 43.0826 49.5 38 49.5Z" stroke="black" stroke-opacity="0.05"/>
</g>
<g filter="url(#filter1_dii_40_403)">
<path d="M12 14C12 8.47715 16.4772 4 22 4H51C52.6569 4 54 5.34315 54 7V43C54 44.6569 52.6569 46 51 46H15C13.3431 46 12 44.6569 12 43V14Z" fill="#F4F4F0"/>
<path d="M22 4.5H51C52.3807 4.5 53.5 5.61929 53.5 7V43C53.5 44.3807 52.3807 45.5 51 45.5H15C13.6193 45.5 12.5 44.3807 12.5 43V14L12.5127 13.5107C12.7591 8.65347 16.6535 4.75912 21.5107 4.5127L22 4.5Z" stroke="black" stroke-opacity="0.15"/>
</g>
<path d="M42.2194 28.6186C34.5341 30.7029 26.5153 29.3941 22.0864 28.0414C21.1572 27.7577 20.0689 28.1205 19.9974 29.0894C19.4554 36.4381 40.0721 47.5791 44.8121 30.9137C45.2335 29.4321 43.7061 28.2154 42.2194 28.6186Z" fill="black"/>
<path d="M31 19.5C31 22.5376 29.8807 23.5 28.5 23.5C27.1193 23.5 26 22.5376 26 19.5C26 16.4624 27.6193 14 29 14C30.3807 14 31 16.4624 31 19.5Z" fill="black"/>
<path d="M37 19.5C37 22.5376 38.1193 24 39.5 24C40.8807 24 42 22.5376 42 19.5C42 16.4624 41.3807 14 40 14C38.6193 14 37 16.4624 37 19.5Z" fill="black"/>
<path d="M44.2079 30.7528C44.336 29.9838 43.5662 29.3486 42.8107 29.5408C36.4437 31.1605 25.8714 29.9134 21 29C20.7622 28.9562 21.3738 30.5264 21.8276 31.5986C21.9362 31.8553 22.1505 32.0533 22.4151 32.1409C31.0422 34.9994 39.6792 33.4783 43.4638 32.1926C43.8002 32.0783 44.0359 31.7846 44.0943 31.4341L44.2079 30.7528Z" fill="white"/>
<defs>
<filter id="filter0_dii_40_403" x="0" y="4" width="56" height="58" filterUnits="userSpaceOnUse" color-interpolation-filters="sRGB">
<feFlood flood-opacity="0" result="BackgroundImageFix"/>
<feColorMatrix in="SourceAlpha" type="matrix" values="0 0 0 0 0 0 0 0 0 0 0 0 0 0 0 0 0 0 127 0" result="hardAlpha"/>
<feOffset dy="4"/>
<feGaussianBlur stdDeviation="4"/>
<feComposite in2="hardAlpha" operator="out"/>
<feColorMatrix type="matrix" values="0 0 0 0 0 0 0 0 0 0 0 0 0 0 0 0 0 0 0.05 0"/>
<feBlend mode="normal" in2="BackgroundImageFix" result="effect1_dropShadow_40_403"/>
<feBlend mode="normal" in="SourceGraphic" in2="effect1_dropShadow_40_403" result="shape"/>
<feColorMatrix in="SourceAlpha" type="matrix" values="0 0 0 0 0 0 0 0 0 0 0 0 0 0 0 0 0 0 127 0" result="hardAlpha"/>
<feOffset dx="1" dy="1"/>
<feComposite in2="hardAlpha" operator="arithmetic" k2="-1" k3="1"/>
<feColorMatrix type="matrix" values="0 0 0 0 1 0 0 0 0 1 0 0 0 0 1 0 0 0 1 0"/>
<feBlend mode="normal" in2="shape" result="effect2_innerShadow_40_403"/>
<feColorMatrix in="SourceAlpha" type="matrix" values="0 0 0 0 0 0 0 0 0 0 0 0 0 0 0 0 0 0 127 0" result="hardAlpha"/>
<feOffset dx="-1" dy="-1"/>
<feGaussianBlur stdDeviation="2"/>
<feComposite in2="hardAlpha" operator="arithmetic" k2="-1" k3="1"/>
<feColorMatrix type="matrix" values="0 0 0 0 0 0 0 0 0 0 0 0 0 0 0 0 0 0 0.05 0"/>
<feBlend mode="normal" in2="effect2_innerShadow_40_403" result="effect3_innerShadow_40_403"/>
</filter>
<filter id="filter1_dii_40_403" x="4" y="0" width="58" height="58" filterUnits="userSpaceOnUse" color-interpolation-filters="sRGB">
<feFlood flood-opacity="0" result="BackgroundImageFix"/>
<feColorMatrix in="SourceAlpha" type="matrix" values="0 0 0 0 0 0 0 0 0 0 0 0 0 0 0 0 0 0 127 0" result="hardAlpha"/>
<feOffset dy="4"/>
<feGaussianBlur stdDeviation="4"/>
<feComposite in2="hardAlpha" operator="out"/>
<feColorMatrix type="matrix" values="0 0 0 0 0 0 0 0 0 0 0 0 0 0 0 0 0 0 0.05 0"/>
<feBlend mode="normal" in2="BackgroundImageFix" result="effect1_dropShadow_40_403"/>
<feBlend mode="normal" in="SourceGraphic" in2="effect1_dropShadow_40_403" result="shape"/>
<feColorMatrix in="SourceAlpha" type="matrix" values="0 0 0 0 0 0 0 0 0 0 0 0 0 0 0 0 0 0 127 0" result="hardAlpha"/>
<feOffset dx="1" dy="1"/>
<feComposite in2="hardAlpha" operator="arithmetic" k2="-1" k3="1"/>
<feColorMatrix type="matrix" values="0 0 0 0 1 0 0 0 0 1 0 0 0 0 1 0 0 0 1 0"/>
<feBlend mode="normal" in2="shape" result="effect2_innerShadow_40_403"/>
<feColorMatrix in="SourceAlpha" type="matrix" values="0 0 0 0 0 0 0 0 0 0 0 0 0 0 0 0 0 0 127 0" result="hardAlpha"/>
<feOffset dx="-1" dy="-1"/>
<feComposite in2="hardAlpha" operator="arithmetic" k2="-1" k3="1"/>
<feColorMatrix type="matrix" values="0 0 0 0 0 0 0 0 0 0 0 0 0 0 0 0 0 0 0.05 0"/>
<feBlend mode="normal" in2="effect2_innerShadow_40_403" result="effect3_innerShadow_40_403"/>
</filter>
</defs>
</svg>
