<svg width="302" height="58" viewBox="0 0 302 58" fill="none" xmlns="http://www.w3.org/2000/svg">
<path d="M78.606 18.714C80.874 21.024 81.252 22.872 81.252 26.148V38.664C81.252 38.874 81.084 39 80.916 39H74.28C74.07 39 73.902 38.874 73.902 38.664V26.484C73.902 25.644 73.86 24.72 73.524 23.964C73.356 23.628 73.146 23.376 72.894 23.166C72.474 22.83 71.928 22.662 71.256 22.662C69.954 22.662 68.988 23.124 68.652 23.838C68.316 24.594 68.316 25.644 68.316 26.484V38.664C68.316 38.874 68.148 39 67.938 39H61.302C61.092 39 60.966 38.874 60.966 38.664V10.104C60.966 9.894 61.092 9.726 61.302 9.726H67.518C67.728 9.726 67.896 9.894 67.896 10.104V17.706C67.896 17.874 68.022 17.958 68.148 17.874C73.188 14.388 78.06 18.252 78.102 18.294C78.27 18.42 78.438 18.588 78.606 18.714ZM106.721 16.74C106.889 16.74 107.057 16.908 107.057 17.118V38.664C107.057 38.832 106.889 39 106.721 39H100.463C100.295 39 100.127 38.832 100.127 38.664V38.328C100.127 38.202 99.9594 38.118 99.8754 38.16C98.0694 39.168 96.0534 39.714 93.9954 39.714C87.4854 39.714 82.1934 34.464 82.1934 28.038C82.1934 21.612 87.4854 16.404 93.9954 16.404C96.0534 16.404 98.0694 16.908 99.8754 17.916C99.9594 18 100.127 17.916 100.127 17.79V17.118C100.127 16.908 100.295 16.74 100.463 16.74H106.721ZM95.0454 33.414C98.0694 33.414 100.127 31.02 100.127 28.038C100.127 25.098 98.0694 22.704 95.0454 22.704C92.0634 22.704 89.6274 25.098 89.6274 28.038C89.6274 31.02 92.0634 33.414 95.0454 33.414ZM122.098 16.404C128.608 16.404 133.9 21.654 133.9 28.08C133.9 34.506 128.608 39.714 122.098 39.714C119.998 39.714 117.982 39.21 116.218 38.16C116.092 38.118 115.966 38.202 115.966 38.328V46.014C115.966 46.224 115.798 46.392 115.588 46.392H109.372C109.162 46.392 109.036 46.224 109.036 46.014V17.118C109.036 16.908 109.162 16.74 109.372 16.74H115.588C115.798 16.74 115.966 16.908 115.966 17.118V17.79C115.966 17.916 116.092 18 116.218 17.958C117.982 16.95 119.998 16.404 122.098 16.404ZM121.006 33.414C123.988 33.414 126.424 31.02 126.424 28.08C126.424 25.098 123.988 22.704 121.006 22.704C118.024 22.704 115.966 25.098 115.966 28.08C115.966 31.02 118.024 33.414 121.006 33.414ZM148.143 16.404C154.653 16.404 159.945 21.654 159.945 28.08C159.945 34.506 154.653 39.714 148.143 39.714C146.043 39.714 144.027 39.21 142.263 38.16C142.137 38.118 142.011 38.202 142.011 38.328V46.014C142.011 46.224 141.843 46.392 141.633 46.392H135.417C135.207 46.392 135.081 46.224 135.081 46.014V17.118C135.081 16.908 135.207 16.74 135.417 16.74H141.633C141.843 16.74 142.011 16.908 142.011 17.118V17.79C142.011 17.916 142.137 18 142.263 17.958C144.027 16.95 146.043 16.404 148.143 16.404ZM147.051 33.414C150.033 33.414 152.469 31.02 152.469 28.08C152.469 25.098 150.033 22.704 147.051 22.704C144.069 22.704 142.011 25.098 142.011 28.08C142.011 31.02 144.069 33.414 147.051 33.414ZM180.689 16.74C180.941 16.74 181.109 16.992 181.025 17.244L174.011 36.69L170.777 45.972C170.693 46.098 170.567 46.224 170.441 46.224H163.511C163.259 46.224 163.091 45.972 163.175 45.72L165.863 37.698C165.905 37.656 165.905 37.572 165.863 37.488L158.471 17.244C158.387 16.992 158.555 16.74 158.807 16.74H165.023C165.149 16.74 165.275 16.866 165.317 16.992L169.391 27.954C169.517 28.29 169.937 28.248 170.063 27.954L173.801 16.992C173.843 16.866 173.969 16.74 174.137 16.74H180.689ZM194.819 16.404C201.329 16.404 206.621 21.654 206.621 28.08C206.621 34.506 201.329 39.714 194.819 39.714C192.719 39.714 190.703 39.21 188.939 38.16C188.813 38.118 188.687 38.202 188.687 38.328V46.014C188.687 46.224 188.519 46.392 188.309 46.392H182.093C181.883 46.392 181.757 46.224 181.757 46.014V17.118C181.757 16.908 181.883 16.74 182.093 16.74H188.309C188.519 16.74 188.687 16.908 188.687 17.118V17.79C188.687 17.916 188.813 18 188.939 17.958C190.703 16.95 192.719 16.404 194.819 16.404ZM193.727 33.414C196.709 33.414 199.145 31.02 199.145 28.08C199.145 25.098 196.709 22.704 193.727 22.704C190.745 22.704 188.687 25.098 188.687 28.08C188.687 31.02 190.745 33.414 193.727 33.414ZM231.532 16.74C231.7 16.74 231.868 16.908 231.868 17.118V38.664C231.868 38.832 231.7 39 231.532 39H225.274C225.106 39 224.938 38.832 224.938 38.664V38.328C224.938 38.202 224.77 38.118 224.686 38.16C222.88 39.168 220.864 39.714 218.806 39.714C212.296 39.714 207.004 34.464 207.004 28.038C207.004 21.612 212.296 16.404 218.806 16.404C220.864 16.404 222.88 16.908 224.686 17.916C224.77 18 224.938 17.916 224.938 17.79V17.118C224.938 16.908 225.106 16.74 225.274 16.74H231.532ZM219.856 33.414C222.88 33.414 224.938 31.02 224.938 28.038C224.938 25.098 222.88 22.704 219.856 22.704C216.874 22.704 214.438 25.098 214.438 28.038C214.438 31.02 216.874 33.414 219.856 33.414ZM257.451 16.824C257.661 16.824 257.829 16.992 257.829 17.16V34.674V36.9C257.829 44.544 253.713 48.786 246.195 48.786H246.027C245.943 48.786 245.859 48.786 245.733 48.786C244.053 48.786 239.895 48.576 235.107 44.208C234.939 44.082 234.981 43.83 235.149 43.662L239.727 40.134C239.853 40.05 240.063 40.05 240.189 40.176C241.155 41.184 243.381 43.032 246.237 42.864C248.085 42.738 249.597 42.024 250.395 40.932C250.899 40.176 251.067 39.294 250.899 38.286C250.857 38.16 250.731 38.118 250.647 38.16C248.841 39.168 246.867 39.714 244.809 39.714C238.299 39.714 233.049 34.464 233.049 28.08C233.049 21.696 238.299 16.446 244.809 16.446C246.867 16.446 248.883 16.992 250.647 18C250.773 18.084 250.899 18 250.899 17.832V17.16C250.899 16.992 251.067 16.824 251.277 16.824H257.451ZM245.859 33.414C248.841 33.414 250.899 31.02 250.899 28.08C250.899 27.45 250.815 26.82 250.563 26.232C249.807 24.132 248.127 22.746 245.859 22.746C242.877 22.746 240.483 25.14 240.483 28.08C240.483 30.978 242.751 33.33 245.691 33.414H245.733C245.775 33.414 245.817 33.414 245.859 33.414ZM282.154 24.762C282.49 25.854 282.616 26.946 282.616 28.08C282.616 28.71 282.574 29.466 282.448 30.138C282.406 30.306 282.28 30.432 282.07 30.432H266.488C266.236 30.432 266.068 30.726 266.194 30.978C267.16 32.574 268.882 33.624 270.772 33.624C272.368 33.624 273.88 32.91 274.93 31.524C275.014 31.44 275.14 31.356 275.308 31.398L281.272 32.448C281.482 32.49 281.608 32.742 281.524 32.952C281.398 33.246 281.23 33.582 281.104 33.75L281.02 33.918C280.936 34.086 280.852 34.254 280.726 34.422C280.6 34.632 280.474 34.8 280.348 34.968L280.264 35.094C280.222 35.136 280.18 35.178 280.138 35.22L280.054 35.304C279.97 35.43 279.886 35.514 279.802 35.598L279.76 35.682C279.592 35.85 279.466 35.976 279.34 36.144L279.256 36.228C279.172 36.312 279.088 36.396 278.962 36.48V36.522C278.836 36.606 278.752 36.732 278.626 36.816L278.5 36.9L278.374 36.774L278.5 36.942C278.332 37.068 278.164 37.194 277.996 37.32L277.87 37.404C277.702 37.53 277.492 37.656 277.324 37.782L277.24 37.824C277.03 37.992 276.82 38.118 276.568 38.244L276.526 38.286C276.484 38.286 276.4 38.328 276.358 38.37H276.316C276.232 38.412 276.148 38.454 276.022 38.538H275.98C275.77 38.664 275.56 38.748 275.392 38.832H275.35C275.182 38.874 275.098 38.916 274.972 38.958L274.804 39.042C274.678 39.084 274.51 39.126 274.384 39.168H274.342C274.174 39.252 274.006 39.294 273.838 39.336L273.712 39.378C273.376 39.462 273.04 39.504 272.662 39.588H272.536C272.2 39.63 271.822 39.672 271.486 39.714H271.36C271.15 39.714 270.982 39.714 270.814 39.714C270.646 39.714 270.478 39.714 270.268 39.714C270.226 39.714 270.184 39.714 270.142 39.714H270.1C269.974 39.672 269.848 39.672 269.722 39.672H269.68C269.638 39.672 269.596 39.672 269.554 39.63C269.344 39.63 269.176 39.63 269.008 39.588H268.924C268.756 39.546 268.63 39.504 268.504 39.504L268.336 39.462C268.21 39.42 268.084 39.42 267.958 39.378H267.916C267.874 39.336 267.832 39.336 267.79 39.336C267.622 39.294 267.454 39.252 267.286 39.21C267.118 39.126 266.95 39.084 266.782 39.042C266.782 39 266.74 39 266.698 39L266.656 38.958C266.53 38.916 266.404 38.874 266.32 38.832H266.278C266.236 38.79 266.194 38.79 266.152 38.79C265.984 38.706 265.858 38.622 265.69 38.58C265.522 38.496 265.396 38.412 265.228 38.328C265.186 38.328 265.144 38.286 265.102 38.286V38.244C264.976 38.202 264.892 38.16 264.766 38.076L264.64 37.992C264.472 37.908 264.346 37.824 264.22 37.74C262.792 36.774 261.574 35.556 260.692 34.086C260.608 34.002 260.566 33.876 260.482 33.75L260.44 33.666C260.398 33.582 260.314 33.456 260.272 33.33L260.23 33.246C260.23 33.204 260.188 33.204 260.188 33.162C259.936 32.7 259.768 32.196 259.6 31.692C259.474 31.44 259.432 31.188 259.348 30.978C259.306 30.81 259.264 30.6 259.222 30.39C259.096 29.844 259.054 29.256 259.012 28.668C259.012 28.458 259.012 28.248 259.012 28.08C259.012 27.87 259.012 27.66 259.012 27.45C259.054 26.442 259.264 25.392 259.6 24.426C259.684 24.09 259.81 23.796 259.936 23.544C259.978 23.376 260.062 23.208 260.146 23.04C260.146 23.04 260.188 22.998 260.188 22.956L260.23 22.872C260.23 22.83 260.272 22.788 260.272 22.746C260.314 22.704 260.314 22.662 260.356 22.662L260.44 22.452C260.524 22.326 260.608 22.158 260.692 22.032C261.574 20.604 262.792 19.344 264.22 18.378C264.346 18.294 264.472 18.21 264.64 18.126L264.766 18.042C264.892 18 264.976 17.916 265.102 17.874V17.832C265.144 17.832 265.186 17.79 265.228 17.79C265.396 17.706 265.522 17.622 265.69 17.538C265.858 17.496 265.984 17.412 266.152 17.328C266.194 17.328 266.236 17.328 266.278 17.286H266.32C266.404 17.244 266.53 17.202 266.656 17.16L266.698 17.118C266.74 17.118 266.782 17.118 266.782 17.076C266.95 17.034 267.118 16.992 267.286 16.908C267.454 16.866 267.622 16.824 267.79 16.782C267.832 16.782 267.874 16.782 267.916 16.74H267.958C268.084 16.698 268.21 16.698 268.336 16.656H268.42C268.588 16.614 268.84 16.572 268.966 16.53H269.008C269.176 16.53 269.344 16.488 269.554 16.488C269.596 16.488 269.638 16.446 269.68 16.446H269.722C269.848 16.446 269.974 16.446 270.1 16.446H270.142C270.184 16.404 270.226 16.404 270.268 16.404C270.478 16.404 270.646 16.404 270.814 16.404C270.982 16.404 271.15 16.404 271.36 16.404H271.486C271.822 16.446 272.2 16.488 272.536 16.53L272.704 16.572C273.04 16.614 273.376 16.656 273.712 16.74L273.838 16.782C274.006 16.824 274.174 16.908 274.342 16.95H274.384C274.51 16.992 274.678 17.034 274.804 17.076C274.846 17.118 274.888 17.118 274.93 17.16C275.098 17.202 275.182 17.244 275.308 17.286H275.392C275.56 17.37 275.77 17.496 275.98 17.58H276.022C276.148 17.664 276.232 17.706 276.316 17.748H276.358L276.274 17.916L276.358 17.748C276.4 17.79 276.484 17.832 276.526 17.874C276.736 17.958 277.03 18.168 277.24 18.294H277.282C277.492 18.42 277.66 18.546 277.87 18.714C277.912 18.756 277.954 18.798 277.996 18.798C278.164 18.924 278.332 19.05 278.5 19.218L278.584 19.26C278.71 19.386 278.836 19.512 278.962 19.596V19.638C279.088 19.722 279.172 19.806 279.256 19.89L279.34 19.974C279.466 20.142 279.592 20.268 279.718 20.436L279.634 20.562L279.76 20.436L279.802 20.52C279.886 20.604 279.97 20.688 280.054 20.814L280.138 20.898C280.222 20.982 280.306 21.108 280.39 21.234C280.474 21.36 280.558 21.444 280.6 21.528L280.726 21.738C280.768 21.822 280.852 21.906 280.894 21.99L281.104 22.368C281.566 23.124 281.902 23.922 282.154 24.762ZM275.308 25.518C275.518 25.518 275.686 25.308 275.686 25.098C275.392 23.46 273.502 22.2 271.066 22.2C268.882 22.2 266.782 23.46 266.488 25.098C266.446 25.308 266.614 25.518 266.824 25.518H275.308ZM296.362 26.274C297.79 26.946 301.066 28.878 300.856 32.364C300.814 33.162 300.604 34.002 300.268 34.842C298.924 37.698 295.858 39.378 292.036 39.378C291.49 39.378 290.944 39.336 290.398 39.294C288.676 39.084 287.206 38.622 285.946 37.908C284.644 37.026 283.678 35.808 283.006 34.296C282.922 34.086 283.048 33.834 283.258 33.792L289.348 32.49C289.516 32.448 289.642 32.532 289.726 32.658C290.146 33.288 290.902 33.582 291.28 33.624C292.204 33.75 292.708 33.498 292.96 33.288C293.17 33.036 293.296 32.7 293.254 32.364C293.17 31.608 292.708 31.23 290.356 30.138L290.314 30.096C289.852 29.886 289.264 29.592 288.592 29.298C288.13 29.088 287.71 28.878 287.29 28.668L287.248 28.626C287.206 28.584 287.164 28.584 287.08 28.542C284.98 27.324 283.72 25.854 283.426 24.132C282.964 21.696 284.518 19.638 284.854 19.26C285.316 18.714 285.862 18.252 286.492 17.874C288.34 16.698 290.734 16.194 293.212 16.488C294.682 16.656 296.026 17.076 297.202 17.664C297.79 17.958 298.294 18.336 298.756 18.714C299.092 19.008 300.058 19.974 300.394 21.486C300.436 21.696 300.31 21.864 300.1 21.906L294.094 23.124C293.926 23.166 293.758 23.04 293.716 22.914C293.548 22.494 293.17 22.074 292.372 21.948C291.826 21.906 291.364 22.074 291.07 22.41C290.818 22.662 290.734 22.956 290.818 23.208C290.944 23.628 291.322 24.258 293.59 25.182C294.01 25.35 294.43 25.518 294.85 25.686C295.354 25.854 295.858 26.064 296.362 26.274Z" fill="#2A2A28"/>
<g filter="url(#filter0_ii_5_320)">
<path d="M44 40C44 45.5228 39.5228 50 34 50H7C5.34315 50 4 48.6569 4 47V11C4 9.34315 5.34315 8 7 8H41C42.6569 8 44 9.34315 44 11V40Z" fill="#2A2A28"/>
</g>
<path d="M34 49.5H7C5.61929 49.5 4.5 48.3807 4.5 47V11C4.5 9.61929 5.61929 8.5 7 8.5H41C42.3807 8.5 43.5 9.61929 43.5 11V40L43.4873 40.4893C43.2327 45.5086 39.0826 49.5 34 49.5Z" stroke="white" stroke-opacity="0.05"/>
<g filter="url(#filter1_ddii_5_320)">
<path d="M8 14C8 8.47715 12.4772 4 18 4H47C48.6569 4 50 5.34315 50 7V43C50 44.6569 48.6569 46 47 46H11C9.34315 46 8 44.6569 8 43V14Z" fill="#2A2A28"/>
<path d="M18 4.5H47C48.3807 4.5 49.5 5.61929 49.5 7V43C49.5 44.3807 48.3807 45.5 47 45.5H11C9.61929 45.5 8.5 44.3807 8.5 43V14L8.5127 13.5107C8.75912 8.65347 12.6535 4.75912 17.5107 4.5127L18 4.5Z" stroke="white" stroke-opacity="0.05"/>
</g>
<path d="M38.2194 28.6186C30.5341 30.7029 22.5153 29.3941 18.0864 28.0414C17.1572 27.7577 16.0689 28.1205 15.9974 29.0894C15.4554 36.4381 36.0721 47.5791 40.8121 30.9137C41.2335 29.4321 39.7061 28.2154 38.2194 28.6186Z" fill="#91918C"/>
<path d="M27 19.5C27 22.5376 25.8807 23.5 24.5 23.5C23.1193 23.5 22 22.5376 22 19.5C22 16.4624 23.6193 14 25 14C26.3807 14 27 16.4624 27 19.5Z" fill="white"/>
<path d="M33 19.5C33 22.5376 34.1193 24 35.5 24C36.8807 24 38 22.5376 38 19.5C38 16.4624 37.3807 14 36 14C34.6193 14 33 16.4624 33 19.5Z" fill="white"/>
<path d="M40.2079 30.7528C40.336 29.9838 39.5662 29.3486 38.8107 29.5408C32.4437 31.1605 21.8714 29.9134 17 29C16.7622 28.9562 17.3738 30.5264 17.8276 31.5986C17.9362 31.8553 18.1505 32.0533 18.4151 32.1409C27.0422 34.9994 35.6792 33.4783 39.4638 32.1926C39.8002 32.0783 40.0359 31.7846 40.0943 31.4341L40.2079 30.7528Z" fill="white"/>
<defs>
<filter id="filter0_ii_5_320" x="4" y="8" width="40" height="42" filterUnits="userSpaceOnUse" color-interpolation-filters="sRGB">
<feFlood flood-opacity="0" result="BackgroundImageFix"/>
<feBlend mode="normal" in="SourceGraphic" in2="BackgroundImageFix" result="shape"/>
<feColorMatrix in="SourceAlpha" type="matrix" values="0 0 0 0 0 0 0 0 0 0 0 0 0 0 0 0 0 0 127 0" result="hardAlpha"/>
<feOffset dx="1" dy="1"/>
<feComposite in2="hardAlpha" operator="arithmetic" k2="-1" k3="1"/>
<feColorMatrix type="matrix" values="0 0 0 0 1 0 0 0 0 1 0 0 0 0 1 0 0 0 0.2 0"/>
<feBlend mode="normal" in2="shape" result="effect1_innerShadow_5_320"/>
<feColorMatrix in="SourceAlpha" type="matrix" values="0 0 0 0 0 0 0 0 0 0 0 0 0 0 0 0 0 0 127 0" result="hardAlpha"/>
<feOffset dx="-1" dy="-1"/>
<feComposite in2="hardAlpha" operator="arithmetic" k2="-1" k3="1"/>
<feColorMatrix type="matrix" values="0 0 0 0 0 0 0 0 0 0 0 0 0 0 0 0 0 0 0.2 0"/>
<feBlend mode="normal" in2="effect1_innerShadow_5_320" result="effect2_innerShadow_5_320"/>
</filter>
<filter id="filter1_ddii_5_320" x="0" y="0" width="58" height="58" filterUnits="userSpaceOnUse" color-interpolation-filters="sRGB">
<feFlood flood-opacity="0" result="BackgroundImageFix"/>
<feColorMatrix in="SourceAlpha" type="matrix" values="0 0 0 0 0 0 0 0 0 0 0 0 0 0 0 0 0 0 127 0" result="hardAlpha"/>
<feOffset dy="4"/>
<feGaussianBlur stdDeviation="4"/>
<feComposite in2="hardAlpha" operator="out"/>
<feColorMatrix type="matrix" values="0 0 0 0 0 0 0 0 0 0 0 0 0 0 0 0 0 0 0.3 0"/>
<feBlend mode="normal" in2="BackgroundImageFix" result="effect1_dropShadow_5_320"/>
<feColorMatrix in="SourceAlpha" type="matrix" values="0 0 0 0 0 0 0 0 0 0 0 0 0 0 0 0 0 0 127 0" result="hardAlpha"/>
<feOffset dy="4"/>
<feGaussianBlur stdDeviation="4"/>
<feComposite in2="hardAlpha" operator="out"/>
<feColorMatrix type="matrix" values="0 0 0 0 1 0 0 0 0 1 0 0 0 0 1 0 0 0 0.2 0"/>
<feBlend mode="normal" in2="effect1_dropShadow_5_320" result="effect2_dropShadow_5_320"/>
<feBlend mode="normal" in="SourceGraphic" in2="effect2_dropShadow_5_320" result="shape"/>
<feColorMatrix in="SourceAlpha" type="matrix" values="0 0 0 0 0 0 0 0 0 0 0 0 0 0 0 0 0 0 127 0" result="hardAlpha"/>
<feOffset dx="1" dy="1"/>
<feComposite in2="hardAlpha" operator="arithmetic" k2="-1" k3="1"/>
<feColorMatrix type="matrix" values="0 0 0 0 1 0 0 0 0 1 0 0 0 0 1 0 0 0 0.4 0"/>
<feBlend mode="normal" in2="shape" result="effect3_innerShadow_5_320"/>
<feColorMatrix in="SourceAlpha" type="matrix" values="0 0 0 0 0 0 0 0 0 0 0 0 0 0 0 0 0 0 127 0" result="hardAlpha"/>
<feOffset dx="-1" dy="-1"/>
<feComposite in2="hardAlpha" operator="arithmetic" k2="-1" k3="1"/>
<feColorMatrix type="matrix" values="0 0 0 0 0 0 0 0 0 0 0 0 0 0 0 0 0 0 0.2 0"/>
<feBlend mode="normal" in2="effect3_innerShadow_5_320" result="effect4_innerShadow_5_320"/>
</filter>
</defs>
</svg>
