<svg width="46" height="46" viewBox="0 0 46 46" fill="none" xmlns="http://www.w3.org/2000/svg">
<path d="M34.2194 24.6186C26.5341 26.7029 18.5153 25.3941 14.0864 24.0414C13.1572 23.7577 12.0689 24.1205 11.9974 25.0894C11.4554 32.4381 32.0721 43.5791 36.8121 26.9137C37.2335 25.4321 35.7061 24.2154 34.2194 24.6186Z" fill="black"/>
<path d="M23 15.5C23 18.5376 21.8807 19.5 20.5 19.5C19.1193 19.5 18 18.5376 18 15.5C18 12.4624 19.6193 10 21 10C22.3807 10 23 12.4624 23 15.5Z" fill="black"/>
<path d="M29 15.5C29 18.5376 30.1193 20 31.5 20C32.8807 20 34 18.5376 34 15.5C34 12.4624 33.3807 10 32 10C30.6193 10 29 12.4624 29 15.5Z" fill="black"/>
<path d="M36.2079 26.7528C36.336 25.9838 35.5662 25.3486 34.8107 25.5408C28.4437 27.1605 17.8714 25.9134 13 25C12.7622 24.9562 13.3738 26.5264 13.8276 27.5986C13.9362 27.8553 14.1505 28.0533 14.4151 28.1409C23.0422 30.9994 31.6792 29.4783 35.4638 28.1926C35.8002 28.0783 36.0359 27.7846 36.0943 27.4341L36.2079 26.7528Z" fill="white"/>
</svg>
