<svg width="290" height="58" viewBox="0 0 290 58" fill="none" xmlns="http://www.w3.org/2000/svg">
<path d="M78.606 18.714C80.874 21.024 81.252 22.872 81.252 26.148V38.664C81.252 38.874 81.084 39 80.916 39H74.28C74.07 39 73.902 38.874 73.902 38.664V26.484C73.902 25.644 73.86 24.72 73.524 23.964C73.356 23.628 73.146 23.376 72.894 23.166C72.474 22.83 71.928 22.662 71.256 22.662C69.954 22.662 68.988 23.124 68.652 23.838C68.316 24.594 68.316 25.644 68.316 26.484V38.664C68.316 38.874 68.148 39 67.938 39H61.302C61.092 39 60.966 38.874 60.966 38.664V10.104C60.966 9.894 61.092 9.726 61.302 9.726H67.518C67.728 9.726 67.896 9.894 67.896 10.104V17.706C67.896 17.874 68.022 17.958 68.148 17.874C73.188 14.388 78.06 18.252 78.102 18.294C78.27 18.42 78.438 18.588 78.606 18.714ZM105.461 16.74C105.629 16.74 105.797 16.908 105.797 17.118V38.664C105.797 38.832 105.629 39 105.461 39H99.2034C99.0354 39 98.8674 38.832 98.8674 38.664V38.328C98.8674 38.202 98.6994 38.118 98.6154 38.16C96.8094 39.168 94.7934 39.714 92.7354 39.714C86.2254 39.714 80.9334 34.464 80.9334 28.038C80.9334 21.612 86.2254 16.404 92.7354 16.404C94.7934 16.404 96.8094 16.908 98.6154 17.916C98.6994 18 98.8674 17.916 98.8674 17.79V17.118C98.8674 16.908 99.0354 16.74 99.2034 16.74H105.461ZM93.7854 33.414C96.8094 33.414 98.8674 31.02 98.8674 28.038C98.8674 25.098 96.8094 22.704 93.7854 22.704C90.8034 22.704 88.3674 25.098 88.3674 28.038C88.3674 31.02 90.8034 33.414 93.7854 33.414ZM119.578 16.404C126.088 16.404 131.38 21.654 131.38 28.08C131.38 34.506 126.088 39.714 119.578 39.714C117.478 39.714 115.462 39.21 113.698 38.16C113.572 38.118 113.446 38.202 113.446 38.328V46.014C113.446 46.224 113.278 46.392 113.068 46.392H106.852C106.642 46.392 106.516 46.224 106.516 46.014V17.118C106.516 16.908 106.642 16.74 106.852 16.74H113.068C113.278 16.74 113.446 16.908 113.446 17.118V17.79C113.446 17.916 113.572 18 113.698 17.958C115.462 16.95 117.478 16.404 119.578 16.404ZM118.486 33.414C121.468 33.414 123.904 31.02 123.904 28.08C123.904 25.098 121.468 22.704 118.486 22.704C115.504 22.704 113.446 25.098 113.446 28.08C113.446 31.02 115.504 33.414 118.486 33.414ZM144.363 16.404C150.873 16.404 156.165 21.654 156.165 28.08C156.165 34.506 150.873 39.714 144.363 39.714C142.263 39.714 140.247 39.21 138.483 38.16C138.357 38.118 138.231 38.202 138.231 38.328V46.014C138.231 46.224 138.063 46.392 137.853 46.392H131.637C131.427 46.392 131.301 46.224 131.301 46.014V17.118C131.301 16.908 131.427 16.74 131.637 16.74H137.853C138.063 16.74 138.231 16.908 138.231 17.118V17.79C138.231 17.916 138.357 18 138.483 17.958C140.247 16.95 142.263 16.404 144.363 16.404ZM143.271 33.414C146.253 33.414 148.689 31.02 148.689 28.08C148.689 25.098 146.253 22.704 143.271 22.704C140.289 22.704 138.231 25.098 138.231 28.08C138.231 31.02 140.289 33.414 143.271 33.414ZM175.649 16.74C175.901 16.74 176.069 16.992 175.985 17.244L168.971 36.69L165.737 45.972C165.653 46.098 165.527 46.224 165.401 46.224H158.471C158.219 46.224 158.051 45.972 158.135 45.72L160.823 37.698C160.865 37.656 160.865 37.572 160.823 37.488L153.431 17.244C153.347 16.992 153.515 16.74 153.767 16.74H159.983C160.109 16.74 160.235 16.866 160.277 16.992L164.351 27.954C164.477 28.29 164.897 28.248 165.023 27.954L168.761 16.992C168.803 16.866 168.929 16.74 169.097 16.74H175.649ZM188.519 16.404C195.029 16.404 200.321 21.654 200.321 28.08C200.321 34.506 195.029 39.714 188.519 39.714C186.419 39.714 184.403 39.21 182.639 38.16C182.513 38.118 182.387 38.202 182.387 38.328V46.014C182.387 46.224 182.219 46.392 182.009 46.392H175.793C175.583 46.392 175.457 46.224 175.457 46.014V17.118C175.457 16.908 175.583 16.74 175.793 16.74H182.009C182.219 16.74 182.387 16.908 182.387 17.118V17.79C182.387 17.916 182.513 18 182.639 17.958C184.403 16.95 186.419 16.404 188.519 16.404ZM187.427 33.414C190.409 33.414 192.845 31.02 192.845 28.08C192.845 25.098 190.409 22.704 187.427 22.704C184.445 22.704 182.387 25.098 182.387 28.08C182.387 31.02 184.445 33.414 187.427 33.414ZM223.972 16.74C224.14 16.74 224.308 16.908 224.308 17.118V38.664C224.308 38.832 224.14 39 223.972 39H217.714C217.546 39 217.378 38.832 217.378 38.664V38.328C217.378 38.202 217.21 38.118 217.126 38.16C215.32 39.168 213.304 39.714 211.246 39.714C204.736 39.714 199.444 34.464 199.444 28.038C199.444 21.612 204.736 16.404 211.246 16.404C213.304 16.404 215.32 16.908 217.126 17.916C217.21 18 217.378 17.916 217.378 17.79V17.118C217.378 16.908 217.546 16.74 217.714 16.74H223.972ZM212.296 33.414C215.32 33.414 217.378 31.02 217.378 28.038C217.378 25.098 215.32 22.704 212.296 22.704C209.314 22.704 206.878 25.098 206.878 28.038C206.878 31.02 209.314 33.414 212.296 33.414ZM248.631 16.824C248.841 16.824 249.009 16.992 249.009 17.16V34.674V36.9C249.009 44.544 244.893 48.786 237.375 48.786H237.207C237.123 48.786 237.039 48.786 236.913 48.786C235.233 48.786 231.075 48.576 226.287 44.208C226.119 44.082 226.161 43.83 226.329 43.662L230.907 40.134C231.033 40.05 231.243 40.05 231.369 40.176C232.335 41.184 234.561 43.032 237.417 42.864C239.265 42.738 240.777 42.024 241.575 40.932C242.079 40.176 242.247 39.294 242.079 38.286C242.037 38.16 241.911 38.118 241.827 38.16C240.021 39.168 238.047 39.714 235.989 39.714C229.479 39.714 224.229 34.464 224.229 28.08C224.229 21.696 229.479 16.446 235.989 16.446C238.047 16.446 240.063 16.992 241.827 18C241.953 18.084 242.079 18 242.079 17.832V17.16C242.079 16.992 242.247 16.824 242.457 16.824H248.631ZM237.039 33.414C240.021 33.414 242.079 31.02 242.079 28.08C242.079 27.45 241.995 26.82 241.743 26.232C240.987 24.132 239.307 22.746 237.039 22.746C234.057 22.746 231.663 25.14 231.663 28.08C231.663 30.978 233.931 33.33 236.871 33.414H236.913C236.955 33.414 236.997 33.414 237.039 33.414ZM272.074 24.762C272.41 25.854 272.536 26.946 272.536 28.08C272.536 28.71 272.494 29.466 272.368 30.138C272.326 30.306 272.2 30.432 271.99 30.432H256.408C256.156 30.432 255.988 30.726 256.114 30.978C257.08 32.574 258.802 33.624 260.692 33.624C262.288 33.624 263.8 32.91 264.85 31.524C264.934 31.44 265.06 31.356 265.228 31.398L271.192 32.448C271.402 32.49 271.528 32.742 271.444 32.952C271.318 33.246 271.15 33.582 271.024 33.75L270.94 33.918C270.856 34.086 270.772 34.254 270.646 34.422C270.52 34.632 270.394 34.8 270.268 34.968L270.184 35.094C270.142 35.136 270.1 35.178 270.058 35.22L269.974 35.304C269.89 35.43 269.806 35.514 269.722 35.598L269.68 35.682C269.512 35.85 269.386 35.976 269.26 36.144L269.176 36.228C269.092 36.312 269.008 36.396 268.882 36.48V36.522C268.756 36.606 268.672 36.732 268.546 36.816L268.42 36.9L268.294 36.774L268.42 36.942C268.252 37.068 268.084 37.194 267.916 37.32L267.79 37.404C267.622 37.53 267.412 37.656 267.244 37.782L267.16 37.824C266.95 37.992 266.74 38.118 266.488 38.244L266.446 38.286C266.404 38.286 266.32 38.328 266.278 38.37H266.236C266.152 38.412 266.068 38.454 265.942 38.538H265.9C265.69 38.664 265.48 38.748 265.312 38.832H265.27C265.102 38.874 265.018 38.916 264.892 38.958L264.724 39.042C264.598 39.084 264.43 39.126 264.304 39.168H264.262C264.094 39.252 263.926 39.294 263.758 39.336L263.632 39.378C263.296 39.462 262.96 39.504 262.582 39.588H262.456C262.12 39.63 261.742 39.672 261.406 39.714H261.28C261.07 39.714 260.902 39.714 260.734 39.714C260.566 39.714 260.398 39.714 260.188 39.714C260.146 39.714 260.104 39.714 260.062 39.714H260.02C259.894 39.672 259.768 39.672 259.642 39.672H259.6C259.558 39.672 259.516 39.672 259.474 39.63C259.264 39.63 259.096 39.63 258.928 39.588H258.844C258.676 39.546 258.55 39.504 258.424 39.504L258.256 39.462C258.13 39.42 258.004 39.42 257.878 39.378H257.836C257.794 39.336 257.752 39.336 257.71 39.336C257.542 39.294 257.374 39.252 257.206 39.21C257.038 39.126 256.87 39.084 256.702 39.042C256.702 39 256.66 39 256.618 39L256.576 38.958C256.45 38.916 256.324 38.874 256.24 38.832H256.198C256.156 38.79 256.114 38.79 256.072 38.79C255.904 38.706 255.778 38.622 255.61 38.58C255.442 38.496 255.316 38.412 255.148 38.328C255.106 38.328 255.064 38.286 255.022 38.286V38.244C254.896 38.202 254.812 38.16 254.686 38.076L254.56 37.992C254.392 37.908 254.266 37.824 254.14 37.74C252.712 36.774 251.494 35.556 250.612 34.086C250.528 34.002 250.486 33.876 250.402 33.75L250.36 33.666C250.318 33.582 250.234 33.456 250.192 33.33L250.15 33.246C250.15 33.204 250.108 33.204 250.108 33.162C249.856 32.7 249.688 32.196 249.52 31.692C249.394 31.44 249.352 31.188 249.268 30.978C249.226 30.81 249.184 30.6 249.142 30.39C249.016 29.844 248.974 29.256 248.932 28.668C248.932 28.458 248.932 28.248 248.932 28.08C248.932 27.87 248.932 27.66 248.932 27.45C248.974 26.442 249.184 25.392 249.52 24.426C249.604 24.09 249.73 23.796 249.856 23.544C249.898 23.376 249.982 23.208 250.066 23.04C250.066 23.04 250.108 22.998 250.108 22.956L250.15 22.872C250.15 22.83 250.192 22.788 250.192 22.746C250.234 22.704 250.234 22.662 250.276 22.662L250.36 22.452C250.444 22.326 250.528 22.158 250.612 22.032C251.494 20.604 252.712 19.344 254.14 18.378C254.266 18.294 254.392 18.21 254.56 18.126L254.686 18.042C254.812 18 254.896 17.916 255.022 17.874V17.832C255.064 17.832 255.106 17.79 255.148 17.79C255.316 17.706 255.442 17.622 255.61 17.538C255.778 17.496 255.904 17.412 256.072 17.328C256.114 17.328 256.156 17.328 256.198 17.286H256.24C256.324 17.244 256.45 17.202 256.576 17.16L256.618 17.118C256.66 17.118 256.702 17.118 256.702 17.076C256.87 17.034 257.038 16.992 257.206 16.908C257.374 16.866 257.542 16.824 257.71 16.782C257.752 16.782 257.794 16.782 257.836 16.74H257.878C258.004 16.698 258.13 16.698 258.256 16.656H258.34C258.508 16.614 258.76 16.572 258.886 16.53H258.928C259.096 16.53 259.264 16.488 259.474 16.488C259.516 16.488 259.558 16.446 259.6 16.446H259.642C259.768 16.446 259.894 16.446 260.02 16.446H260.062C260.104 16.404 260.146 16.404 260.188 16.404C260.398 16.404 260.566 16.404 260.734 16.404C260.902 16.404 261.07 16.404 261.28 16.404H261.406C261.742 16.446 262.12 16.488 262.456 16.53L262.624 16.572C262.96 16.614 263.296 16.656 263.632 16.74L263.758 16.782C263.926 16.824 264.094 16.908 264.262 16.95H264.304C264.43 16.992 264.598 17.034 264.724 17.076C264.766 17.118 264.808 17.118 264.85 17.16C265.018 17.202 265.102 17.244 265.228 17.286H265.312C265.48 17.37 265.69 17.496 265.9 17.58H265.942C266.068 17.664 266.152 17.706 266.236 17.748H266.278L266.194 17.916L266.278 17.748C266.32 17.79 266.404 17.832 266.446 17.874C266.656 17.958 266.95 18.168 267.16 18.294H267.202C267.412 18.42 267.58 18.546 267.79 18.714C267.832 18.756 267.874 18.798 267.916 18.798C268.084 18.924 268.252 19.05 268.42 19.218L268.504 19.26C268.63 19.386 268.756 19.512 268.882 19.596V19.638C269.008 19.722 269.092 19.806 269.176 19.89L269.26 19.974C269.386 20.142 269.512 20.268 269.638 20.436L269.554 20.562L269.68 20.436L269.722 20.52C269.806 20.604 269.89 20.688 269.974 20.814L270.058 20.898C270.142 20.982 270.226 21.108 270.31 21.234C270.394 21.36 270.478 21.444 270.52 21.528L270.646 21.738C270.688 21.822 270.772 21.906 270.814 21.99L271.024 22.368C271.486 23.124 271.822 23.922 272.074 24.762ZM265.228 25.518C265.438 25.518 265.606 25.308 265.606 25.098C265.312 23.46 263.422 22.2 260.986 22.2C258.802 22.2 256.702 23.46 256.408 25.098C256.366 25.308 256.534 25.518 256.744 25.518H265.228ZM285.022 26.274C286.45 26.946 289.726 28.878 289.516 32.364C289.474 33.162 289.264 34.002 288.928 34.842C287.584 37.698 284.518 39.378 280.696 39.378C280.15 39.378 279.604 39.336 279.058 39.294C277.336 39.084 275.866 38.622 274.606 37.908C273.304 37.026 272.338 35.808 271.666 34.296C271.582 34.086 271.708 33.834 271.918 33.792L278.008 32.49C278.176 32.448 278.302 32.532 278.386 32.658C278.806 33.288 279.562 33.582 279.94 33.624C280.864 33.75 281.368 33.498 281.62 33.288C281.83 33.036 281.956 32.7 281.914 32.364C281.83 31.608 281.368 31.23 279.016 30.138L278.974 30.096C278.512 29.886 277.924 29.592 277.252 29.298C276.79 29.088 276.37 28.878 275.95 28.668L275.908 28.626C275.866 28.584 275.824 28.584 275.74 28.542C273.64 27.324 272.38 25.854 272.086 24.132C271.624 21.696 273.178 19.638 273.514 19.26C273.976 18.714 274.522 18.252 275.152 17.874C277 16.698 279.394 16.194 281.872 16.488C283.342 16.656 284.686 17.076 285.862 17.664C286.45 17.958 286.954 18.336 287.416 18.714C287.752 19.008 288.718 19.974 289.054 21.486C289.096 21.696 288.97 21.864 288.76 21.906L282.754 23.124C282.586 23.166 282.418 23.04 282.376 22.914C282.208 22.494 281.83 22.074 281.032 21.948C280.486 21.906 280.024 22.074 279.73 22.41C279.478 22.662 279.394 22.956 279.478 23.208C279.604 23.628 279.982 24.258 282.25 25.182C282.67 25.35 283.09 25.518 283.51 25.686C284.014 25.854 284.518 26.064 285.022 26.274Z" fill="#2A2A28"/>
<g filter="url(#filter0_ii_5_320)">
<path d="M44 40C44 45.5228 39.5228 50 34 50H7C5.34315 50 4 48.6569 4 47V11C4 9.34315 5.34315 8 7 8H41C42.6569 8 44 9.34315 44 11V40Z" fill="#2A2A28"/>
</g>
<path d="M34 49.5H7C5.61929 49.5 4.5 48.3807 4.5 47V11C4.5 9.61929 5.61929 8.5 7 8.5H41C42.3807 8.5 43.5 9.61929 43.5 11V40L43.4873 40.4893C43.2327 45.5086 39.0826 49.5 34 49.5Z" stroke="white" stroke-opacity="0.05"/>
<g filter="url(#filter1_ddii_5_320)">
<path d="M8 14C8 8.47715 12.4772 4 18 4H47C48.6569 4 50 5.34315 50 7V43C50 44.6569 48.6569 46 47 46H11C9.34315 46 8 44.6569 8 43V14Z" fill="#2A2A28"/>
<path d="M18 4.5H47C48.3807 4.5 49.5 5.61929 49.5 7V43C49.5 44.3807 48.3807 45.5 47 45.5H11C9.61929 45.5 8.5 44.3807 8.5 43V14L8.5127 13.5107C8.75912 8.65347 12.6535 4.75912 17.5107 4.5127L18 4.5Z" stroke="white" stroke-opacity="0.05"/>
</g>
<path d="M38.2194 28.6186C30.5341 30.7029 22.5153 29.3941 18.0864 28.0414C17.1572 27.7577 16.0689 28.1205 15.9974 29.0894C15.4554 36.4381 36.0721 47.5791 40.8121 30.9137C41.2335 29.4321 39.7061 28.2154 38.2194 28.6186Z" fill="#91918C"/>
<path d="M27 19.5C27 22.5376 25.8807 23.5 24.5 23.5C23.1193 23.5 22 22.5376 22 19.5C22 16.4624 23.6193 14 25 14C26.3807 14 27 16.4624 27 19.5Z" fill="white"/>
<path d="M33 19.5C33 22.5376 34.1193 24 35.5 24C36.8807 24 38 22.5376 38 19.5C38 16.4624 37.3807 14 36 14C34.6193 14 33 16.4624 33 19.5Z" fill="white"/>
<path d="M40.2079 30.7528C40.336 29.9838 39.5662 29.3486 38.8107 29.5408C32.4437 31.1605 21.8714 29.9134 17 29C16.7622 28.9562 17.3738 30.5264 17.8276 31.5986C17.9362 31.8553 18.1505 32.0533 18.4151 32.1409C27.0422 34.9994 35.6792 33.4783 39.4638 32.1926C39.8002 32.0783 40.0359 31.7846 40.0943 31.4341L40.2079 30.7528Z" fill="white"/>
<defs>
<filter id="filter0_ii_5_320" x="4" y="8" width="40" height="42" filterUnits="userSpaceOnUse" color-interpolation-filters="sRGB">
<feFlood flood-opacity="0" result="BackgroundImageFix"/>
<feBlend mode="normal" in="SourceGraphic" in2="BackgroundImageFix" result="shape"/>
<feColorMatrix in="SourceAlpha" type="matrix" values="0 0 0 0 0 0 0 0 0 0 0 0 0 0 0 0 0 0 127 0" result="hardAlpha"/>
<feOffset dx="1" dy="1"/>
<feComposite in2="hardAlpha" operator="arithmetic" k2="-1" k3="1"/>
<feColorMatrix type="matrix" values="0 0 0 0 1 0 0 0 0 1 0 0 0 0 1 0 0 0 0.2 0"/>
<feBlend mode="normal" in2="shape" result="effect1_innerShadow_5_320"/>
<feColorMatrix in="SourceAlpha" type="matrix" values="0 0 0 0 0 0 0 0 0 0 0 0 0 0 0 0 0 0 127 0" result="hardAlpha"/>
<feOffset dx="-1" dy="-1"/>
<feComposite in2="hardAlpha" operator="arithmetic" k2="-1" k3="1"/>
<feColorMatrix type="matrix" values="0 0 0 0 0 0 0 0 0 0 0 0 0 0 0 0 0 0 0.2 0"/>
<feBlend mode="normal" in2="effect1_innerShadow_5_320" result="effect2_innerShadow_5_320"/>
</filter>
<filter id="filter1_ddii_5_320" x="0" y="0" width="58" height="58" filterUnits="userSpaceOnUse" color-interpolation-filters="sRGB">
<feFlood flood-opacity="0" result="BackgroundImageFix"/>
<feColorMatrix in="SourceAlpha" type="matrix" values="0 0 0 0 0 0 0 0 0 0 0 0 0 0 0 0 0 0 127 0" result="hardAlpha"/>
<feOffset dy="4"/>
<feGaussianBlur stdDeviation="4"/>
<feComposite in2="hardAlpha" operator="out"/>
<feColorMatrix type="matrix" values="0 0 0 0 0 0 0 0 0 0 0 0 0 0 0 0 0 0 0.3 0"/>
<feBlend mode="normal" in2="BackgroundImageFix" result="effect1_dropShadow_5_320"/>
<feColorMatrix in="SourceAlpha" type="matrix" values="0 0 0 0 0 0 0 0 0 0 0 0 0 0 0 0 0 0 127 0" result="hardAlpha"/>
<feOffset dy="4"/>
<feGaussianBlur stdDeviation="4"/>
<feComposite in2="hardAlpha" operator="out"/>
<feColorMatrix type="matrix" values="0 0 0 0 1 0 0 0 0 1 0 0 0 0 1 0 0 0 0.2 0"/>
<feBlend mode="normal" in2="effect1_dropShadow_5_320" result="effect2_dropShadow_5_320"/>
<feBlend mode="normal" in="SourceGraphic" in2="effect2_dropShadow_5_320" result="shape"/>
<feColorMatrix in="SourceAlpha" type="matrix" values="0 0 0 0 0 0 0 0 0 0 0 0 0 0 0 0 0 0 127 0" result="hardAlpha"/>
<feOffset dx="1" dy="1"/>
<feComposite in2="hardAlpha" operator="arithmetic" k2="-1" k3="1"/>
<feColorMatrix type="matrix" values="0 0 0 0 1 0 0 0 0 1 0 0 0 0 1 0 0 0 0.4 0"/>
<feBlend mode="normal" in2="shape" result="effect3_innerShadow_5_320"/>
<feColorMatrix in="SourceAlpha" type="matrix" values="0 0 0 0 0 0 0 0 0 0 0 0 0 0 0 0 0 0 127 0" result="hardAlpha"/>
<feOffset dx="-1" dy="-1"/>
<feComposite in2="hardAlpha" operator="arithmetic" k2="-1" k3="1"/>
<feColorMatrix type="matrix" values="0 0 0 0 0 0 0 0 0 0 0 0 0 0 0 0 0 0 0.2 0"/>
<feBlend mode="normal" in2="effect3_innerShadow_5_320" result="effect4_innerShadow_5_320"/>
</filter>
</defs>
</svg>
