<svg width="58" height="58" viewBox="0 0 58 58" fill="none" xmlns="http://www.w3.org/2000/svg">
<g filter="url(#filter0_ii_14_321)">
<path d="M44 40C44 45.5228 39.5228 50 34 50H7C5.34315 50 4 48.6569 4 47V11C4 9.34315 5.34315 8 7 8H41C42.6569 8 44 9.34315 44 11V40Z" fill="#2A2A28"/>
</g>
<path d="M34 49.5H7C5.61929 49.5 4.5 48.3807 4.5 47V11C4.5 9.61929 5.61929 8.5 7 8.5H41C42.3807 8.5 43.5 9.61929 43.5 11V40L43.4873 40.4893C43.2327 45.5086 39.0826 49.5 34 49.5Z" stroke="white" stroke-opacity="0.05"/>
<g filter="url(#filter1_ddii_14_321)">
<path d="M8 14C8 8.47715 12.4772 4 18 4H47C48.6569 4 50 5.34315 50 7V43C50 44.6569 48.6569 46 47 46H11C9.34315 46 8 44.6569 8 43V14Z" fill="#2A2A28"/>
<path d="M18 4.5H47C48.3807 4.5 49.5 5.61929 49.5 7V43C49.5 44.3807 48.3807 45.5 47 45.5H11C9.61929 45.5 8.5 44.3807 8.5 43V14L8.5127 13.5107C8.75912 8.65347 12.6535 4.75912 17.5107 4.5127L18 4.5Z" stroke="white" stroke-opacity="0.05"/>
</g>
<path d="M38.2194 28.6186C30.5341 30.7029 22.5153 29.3941 18.0864 28.0414C17.1572 27.7577 16.0689 28.1205 15.9974 29.0894C15.4554 36.4381 36.0721 47.5791 40.8121 30.9137C41.2335 29.4321 39.7061 28.2154 38.2194 28.6186Z" fill="#91918C"/>
<path d="M27 19.5C27 22.5376 25.8807 23.5 24.5 23.5C23.1193 23.5 22 22.5376 22 19.5C22 16.4624 23.6193 14 25 14C26.3807 14 27 16.4624 27 19.5Z" fill="white"/>
<path d="M33 19.5C33 22.5376 34.1193 24 35.5 24C36.8807 24 38 22.5376 38 19.5C38 16.4624 37.3807 14 36 14C34.6193 14 33 16.4624 33 19.5Z" fill="white"/>
<path d="M40.2079 30.7528C40.336 29.9838 39.5662 29.3486 38.8107 29.5408C32.4437 31.1605 21.8714 29.9134 17 29C16.7622 28.9562 17.3738 30.5264 17.8276 31.5986C17.9362 31.8553 18.1505 32.0533 18.4151 32.1409C27.0422 34.9994 35.6792 33.4783 39.4638 32.1926C39.8002 32.0783 40.0359 31.7846 40.0943 31.4341L40.2079 30.7528Z" fill="white"/>
<defs>
<filter id="filter0_ii_14_321" x="4" y="8" width="40" height="42" filterUnits="userSpaceOnUse" color-interpolation-filters="sRGB">
<feFlood flood-opacity="0" result="BackgroundImageFix"/>
<feBlend mode="normal" in="SourceGraphic" in2="BackgroundImageFix" result="shape"/>
<feColorMatrix in="SourceAlpha" type="matrix" values="0 0 0 0 0 0 0 0 0 0 0 0 0 0 0 0 0 0 127 0" result="hardAlpha"/>
<feOffset dx="1" dy="1"/>
<feComposite in2="hardAlpha" operator="arithmetic" k2="-1" k3="1"/>
<feColorMatrix type="matrix" values="0 0 0 0 1 0 0 0 0 1 0 0 0 0 1 0 0 0 0.2 0"/>
<feBlend mode="normal" in2="shape" result="effect1_innerShadow_14_321"/>
<feColorMatrix in="SourceAlpha" type="matrix" values="0 0 0 0 0 0 0 0 0 0 0 0 0 0 0 0 0 0 127 0" result="hardAlpha"/>
<feOffset dx="-1" dy="-1"/>
<feComposite in2="hardAlpha" operator="arithmetic" k2="-1" k3="1"/>
<feColorMatrix type="matrix" values="0 0 0 0 0 0 0 0 0 0 0 0 0 0 0 0 0 0 0.2 0"/>
<feBlend mode="normal" in2="effect1_innerShadow_14_321" result="effect2_innerShadow_14_321"/>
</filter>
<filter id="filter1_ddii_14_321" x="0" y="0" width="58" height="58" filterUnits="userSpaceOnUse" color-interpolation-filters="sRGB">
<feFlood flood-opacity="0" result="BackgroundImageFix"/>
<feColorMatrix in="SourceAlpha" type="matrix" values="0 0 0 0 0 0 0 0 0 0 0 0 0 0 0 0 0 0 127 0" result="hardAlpha"/>
<feOffset dy="4"/>
<feGaussianBlur stdDeviation="4"/>
<feComposite in2="hardAlpha" operator="out"/>
<feColorMatrix type="matrix" values="0 0 0 0 0 0 0 0 0 0 0 0 0 0 0 0 0 0 0.3 0"/>
<feBlend mode="normal" in2="BackgroundImageFix" result="effect1_dropShadow_14_321"/>
<feColorMatrix in="SourceAlpha" type="matrix" values="0 0 0 0 0 0 0 0 0 0 0 0 0 0 0 0 0 0 127 0" result="hardAlpha"/>
<feOffset dy="4"/>
<feGaussianBlur stdDeviation="4"/>
<feComposite in2="hardAlpha" operator="out"/>
<feColorMatrix type="matrix" values="0 0 0 0 1 0 0 0 0 1 0 0 0 0 1 0 0 0 0.2 0"/>
<feBlend mode="normal" in2="effect1_dropShadow_14_321" result="effect2_dropShadow_14_321"/>
<feBlend mode="normal" in="SourceGraphic" in2="effect2_dropShadow_14_321" result="shape"/>
<feColorMatrix in="SourceAlpha" type="matrix" values="0 0 0 0 0 0 0 0 0 0 0 0 0 0 0 0 0 0 127 0" result="hardAlpha"/>
<feOffset dx="1" dy="1"/>
<feComposite in2="hardAlpha" operator="arithmetic" k2="-1" k3="1"/>
<feColorMatrix type="matrix" values="0 0 0 0 1 0 0 0 0 1 0 0 0 0 1 0 0 0 0.4 0"/>
<feBlend mode="normal" in2="shape" result="effect3_innerShadow_14_321"/>
<feColorMatrix in="SourceAlpha" type="matrix" values="0 0 0 0 0 0 0 0 0 0 0 0 0 0 0 0 0 0 127 0" result="hardAlpha"/>
<feOffset dx="-1" dy="-1"/>
<feComposite in2="hardAlpha" operator="arithmetic" k2="-1" k3="1"/>
<feColorMatrix type="matrix" values="0 0 0 0 0 0 0 0 0 0 0 0 0 0 0 0 0 0 0.2 0"/>
<feBlend mode="normal" in2="effect3_innerShadow_14_321" result="effect4_innerShadow_14_321"/>
</filter>
</defs>
</svg>
