<svg width="208" height="109" viewBox="0 0 208 109" fill="none" xmlns="http://www.w3.org/2000/svg">
<path d="M41.3725 58.2815C40.1186 56.8606 39.4911 54.8514 39.4911 52.2556V37.4337H47.1018V50.6329C47.1018 51.6575 47.3029 52.4288 47.7031 52.9479C48.1034 53.4674 48.7272 53.727 49.5725 53.727C50.5349 53.727 51.2784 53.4024 51.8034 52.7528C52.2841 52.1469 52.525 51.217 52.525 49.9619V37.4337H60.1357V59.7633H54.5161C54.4863 59.1147 54.3922 58.5951 54.2318 58.2051C54.0573 57.7437 53.7862 57.5133 53.4225 57.5133C53.2627 57.5133 53.1237 57.5492 53.0072 57.621C52.8912 57.6938 52.7376 57.8306 52.5479 58.0324C51.7898 58.8406 50.955 59.4388 50.0438 59.8278C49.1326 60.2168 48.0501 60.4119 46.7967 60.4119C44.4341 60.4119 42.6264 59.7024 41.3725 58.2805V58.2815Z" fill="black"/>
<path d="M67.3114 58.2077C65.9776 56.9891 65.3104 55.0304 65.3104 52.3337V43.4625H61.9207V37.4039H64.0419C64.7853 37.4039 65.3757 37.2557 65.8135 36.9608C66.2508 36.6659 66.5857 36.1853 66.8198 35.5217C67.1986 34.3535 67.4828 33.0257 67.6724 31.5403H72.768V37.4039H77.2074V43.4625H72.768V51.4033C72.768 52.3701 72.976 53.0624 73.3913 53.4805C73.8072 53.8987 74.4733 54.1078 75.3929 54.1078C76.0339 54.1078 76.7048 54.0287 77.4043 53.8696V59.5168C76.9378 59.6754 76.3511 59.8013 75.6442 59.8949C74.9368 59.989 74.2476 60.0358 73.5778 60.0358C70.7346 60.0358 68.6463 59.4273 67.3114 58.2077Z" fill="black"/>
<path d="M26.7827 53.5049C27.7591 53.5049 28.4916 53.2345 28.9812 52.6931C29.4692 52.1527 29.7137 51.3486 29.7137 50.2809C29.7137 48.1032 28.7293 47.0131 26.7612 47.0131H22.6719V53.5039H26.7837L26.7827 53.5049ZM22.6709 35.8924V41.9723H25.9514C26.9279 41.9723 27.6536 41.7268 28.1275 41.2364C28.6013 40.7465 28.8375 39.9746 28.8375 38.9215C28.8375 36.9019 27.8824 35.8924 25.9728 35.8924H22.6698H22.6709ZM36.5908 46.3859C37.4294 47.6263 37.8484 49.1268 37.8484 50.8862C37.8484 53.728 37.0172 55.9166 35.3552 57.453C33.6938 58.9898 31.2878 59.7575 28.1379 59.7575H14.4912V29.6393H27.4822C29.4645 29.6393 31.1489 29.967 32.5344 30.6239C33.9195 31.2802 34.9623 32.1997 35.6619 33.3824C36.3615 34.5657 36.7115 35.9502 36.7115 37.5375C36.7115 38.9511 36.3876 40.1879 35.7387 41.2478C35.0903 42.3078 34.1316 43.1342 32.8636 43.7251C34.5109 44.2587 35.7533 45.146 36.5924 46.3864L36.5908 46.3859Z" fill="black"/>
<path d="M84.3348 58.2077C83.0009 56.9891 82.3338 55.0304 82.3338 52.3337V43.4625H78.944V37.4039H81.0652C81.8087 37.4039 82.3991 37.2557 82.8369 36.9608C83.2742 36.6659 83.6091 36.1853 83.8432 35.5217C84.2219 34.3535 84.5056 33.0257 84.6958 31.5403H89.7914V37.4039H94.2307V43.4625H89.7914V51.4033C89.7914 52.3701 89.9988 53.0624 90.4147 53.4805C90.83 53.8987 91.4967 54.1078 92.4157 54.1078C93.0573 54.1078 93.7281 54.0287 94.4277 53.8696V59.5168C93.9612 59.6754 93.3744 59.8013 92.6675 59.8949C91.9601 59.989 91.271 60.0358 90.6007 60.0358C87.7574 60.0358 85.6697 59.4273 84.3348 58.2077Z" fill="black"/>
<path d="M103.742 43.3979C103.152 44.0901 102.835 45.0934 102.791 46.4056H109.221C109.235 45.0497 108.976 44.0371 108.444 43.3661C107.912 42.6952 107.157 42.3603 106.18 42.3603C105.145 42.3603 104.333 42.7066 103.742 43.3989V43.3979ZM102.791 50.5597V50.9061C102.791 52.1611 103.071 53.1025 103.632 53.7297C104.194 54.3575 104.991 54.6711 106.027 54.6711C106.903 54.6711 107.576 54.4724 108.05 54.0766C108.524 53.6803 108.818 53.0775 108.936 52.2693H116.044C115.665 54.8084 114.611 56.7952 112.884 58.2302C111.156 59.6662 108.863 60.3829 106.005 60.3829C103.834 60.3829 101.934 59.9179 100.309 58.9874C98.6826 58.0565 97.4282 56.7083 96.5468 54.9416C95.6644 53.1742 95.2239 51.0579 95.2239 48.5906C95.2239 46.1232 95.668 44.0251 96.5578 42.251C97.447 40.4764 98.7014 39.1174 100.319 38.1724C101.938 37.2279 103.833 36.7551 106.005 36.7551C108.179 36.7551 109.938 37.1878 111.506 38.0538C113.073 38.9198 114.284 40.1779 115.137 41.8292C115.989 43.4811 116.416 45.4611 116.416 47.7688C116.416 49.0966 116.342 50.0261 116.197 50.5597H102.791Z" fill="black"/>
<path d="M118.137 59.7269V37.3973H123.363C123.436 38.3491 123.538 39.0414 123.67 39.4751C123.801 39.951 123.998 40.1892 124.26 40.1892C124.391 40.1892 124.49 40.1565 124.556 40.092C124.622 40.027 124.698 39.8933 124.785 39.691C125.15 38.8255 125.74 38.1551 126.557 37.6787C127.373 37.2023 128.372 36.9641 129.553 36.9641C130.224 36.9641 130.807 37.0218 131.303 37.1368V43.9522C130.69 43.8653 130.107 43.8227 129.553 43.8227C128.883 43.8227 128.306 43.8955 127.826 44.0391C127.344 44.1836 126.95 44.4213 126.645 44.7537C126.046 45.4173 125.748 46.4055 125.748 47.7183V59.7269H118.137H118.137Z" fill="black"/>
<path d="M133.111 59.7343V37.4047H138.775C138.803 38.0689 138.899 38.5952 139.059 38.9843C139.161 39.2157 139.274 39.3884 139.398 39.5039C139.521 39.6188 139.671 39.6765 139.846 39.6765C140.02 39.6765 140.166 39.6412 140.283 39.5683C140.399 39.4966 140.552 39.3593 140.742 39.1569C141.486 38.3638 142.324 37.7646 143.257 37.3615C144.19 36.9585 145.284 36.7551 146.538 36.7551C148.885 36.7551 150.69 37.4661 151.951 38.887C153.212 40.3074 153.843 42.3166 153.843 44.9124V59.7343H146.232V46.4269C146.232 44.4365 145.423 43.441 143.804 43.441C142.886 43.441 142.157 43.7588 141.617 44.3933C141.019 45.1147 140.721 46.1237 140.721 47.4224V59.7343H133.11H133.111Z" fill="black"/>
<path d="M157.591 58.2504C156.337 56.83 155.71 54.8208 155.71 52.2244V37.4031H163.321V50.6017C163.321 51.6263 163.522 52.3976 163.922 52.9167C164.322 53.4363 164.946 53.6958 165.791 53.6958C166.754 53.6958 167.497 53.3713 168.022 52.7217C168.503 52.1157 168.744 51.1858 168.744 49.9308V37.4031H176.355V59.7321H170.734C170.705 59.0836 170.611 58.564 170.451 58.1744C170.276 57.7126 170.006 57.4822 169.642 57.4822C169.482 57.4822 169.343 57.5181 169.226 57.5898C169.11 57.6626 168.956 57.7994 168.767 58.0012C168.009 58.8095 167.174 59.4081 166.263 59.7971C165.352 60.1862 164.269 60.3812 163.016 60.3812C160.653 60.3812 158.846 59.6713 157.591 58.2493V58.2504Z" fill="black"/>
<path d="M183.528 58.2077C182.194 56.9891 181.527 55.0304 181.527 52.3337V43.4625H178.137V37.4039H180.258C181.002 37.4039 181.592 37.2557 182.03 36.9608C182.467 36.6659 182.802 36.1853 183.036 35.5217C183.415 34.3535 183.699 33.0257 183.889 31.5403H188.984V37.4039H193.424V43.4625H188.984V51.4033C188.984 52.3701 189.192 53.0624 189.608 53.4805C190.024 53.8987 190.69 54.1078 191.609 54.1078C192.25 54.1078 192.921 54.0287 193.621 53.8696V59.5168C193.154 59.6754 192.567 59.8013 191.861 59.8949C191.153 59.989 190.464 60.0358 189.794 60.0358C186.951 60.0358 184.863 59.4273 183.528 58.2077Z" fill="black"/>
<path d="M26.7827 86.1892C27.7591 86.1892 28.4916 85.9187 28.9812 85.3773C29.4692 84.8369 29.7137 84.0328 29.7137 82.9651C29.7137 80.7874 28.7293 79.6973 26.7612 79.6973H22.6719V86.1881H26.7837L26.7827 86.1892ZM22.6709 68.5767V74.6566H25.9514C26.9279 74.6566 27.6536 74.4111 28.1275 73.9206C28.6013 73.4307 28.8375 72.6589 28.8375 71.6057C28.8375 69.5862 27.8824 68.5767 25.9728 68.5767H22.6698H22.6709ZM36.5908 79.0706C37.4294 80.3116 37.8484 81.812 37.8484 83.571C37.8484 86.4133 37.0172 88.6014 35.3557 90.1382C33.6938 91.6751 31.2878 92.4423 28.1379 92.4423H14.4912V62.3241H27.4822C29.4645 62.3241 31.1489 62.6523 32.5344 63.3086C33.9195 63.9655 34.9623 64.8845 35.6619 66.0677C36.3615 67.2509 36.712 68.6349 36.712 70.2222C36.712 71.6359 36.3876 72.8732 35.7387 73.9331C35.0903 74.9931 34.1316 75.819 32.8636 76.4103C34.5109 76.9439 35.7533 77.8307 36.5924 79.0717L36.5908 79.0706Z" fill="black"/>
<path d="M54.0388 81.2746C54.0388 77.5824 52.8653 75.7355 50.5174 75.7355C49.3795 75.7355 48.5127 76.1786 47.915 77.0659C47.3168 77.9527 47.0185 79.3559 47.0185 81.2746C47.0185 83.1932 47.3168 84.5965 47.915 85.4832C48.5127 86.3705 49.3805 86.8137 50.5174 86.8137C52.8643 86.8137 54.0388 84.9678 54.0388 81.2746ZM44.5362 91.6064C42.8518 90.6182 41.5619 89.2342 40.6653 87.4518C39.7688 85.6705 39.3205 83.6114 39.3205 81.2746C39.3205 78.9372 39.7688 76.8787 40.6653 75.0973C41.5619 73.316 42.8518 71.9314 44.5362 70.9427C46.2201 69.9545 48.2133 69.4604 50.5174 69.4604C52.8214 69.4604 54.8146 69.955 56.4985 70.9427C58.1824 71.9304 59.4724 73.316 60.3694 75.0973C61.266 76.8787 61.7137 78.9372 61.7137 81.2746C61.7137 83.6114 61.266 85.6705 60.3694 87.4518C59.4724 89.2332 58.1824 90.6182 56.4985 91.6064C54.8146 92.5946 52.8204 93.0882 50.5174 93.0882C48.2144 93.0882 46.2201 92.5941 44.5362 91.6064Z" fill="black"/>
<path d="M76.5423 80.9095L83.0595 92.4427H74.5078L71.2931 85.865L68.0779 92.4427H60.2263L66.6123 81.2127L60.1605 70.1132H68.6468L71.7738 76.4527L74.9012 70.1132H82.7089L76.5412 80.9105L76.5423 80.9095Z" fill="black"/>
<path d="M93.0698 84.0254H84.5626V92.4423H93.0698V84.0254Z" fill="black"/>
</svg>
